<svg width="512" height="512" viewBox="0 0 512 512" fill="none" xmlns="http://www.w3.org/2000/svg">
  <defs>
    <linearGradient id="bgGrad" x1="70" y1="60" x2="442" y2="452" gradientUnits="userSpaceOnUse">
      <stop offset="0" stop-color="#1D4ED8"/>
      <stop offset="1" stop-color="#0EA5A4"/>
    </linearGradient>
    <linearGradient id="arrowGrad" x1="282" y1="254" x2="408" y2="380" gradientUnits="userSpaceOnUse">
      <stop offset="0" stop-color="#F59E0B"/>
      <stop offset="1" stop-color="#F97316"/>
    </linearGradient>
    <filter id="softShadow" x="88" y="72" width="336" height="372" filterUnits="userSpaceOnUse" color-interpolation-filters="sRGB">
      <feDropShadow dx="0" dy="14" stdDeviation="14" flood-color="#0B1C45" flood-opacity="0.24"/>
    </filter>
  </defs>

  <rect x="32" y="32" width="448" height="448" rx="108" fill="url(#bgGrad)"/>
  <circle cx="132" cy="138" r="34" fill="white" fill-opacity="0.12"/>
  <circle cx="394" cy="108" r="22" fill="white" fill-opacity="0.12"/>
  <circle cx="404" cy="382" r="30" fill="white" fill-opacity="0.09"/>

  <g filter="url(#softShadow)">
    <path d="M148 104C148 91.85 157.85 82 170 82H292L364 154V390C364 402.15 354.15 412 342 412H170C157.85 412 148 402.15 148 390V104Z" fill="#F8FBFF"/>
    <path d="M292 82V132C292 144.15 301.85 154 314 154H364L292 82Z" fill="#D7E5FF"/>
    <rect x="182" y="188" width="148" height="14" rx="7" fill="#A8C2F7"/>
    <rect x="182" y="224" width="132" height="14" rx="7" fill="#A8C2F7"/>
    <rect x="182" y="260" width="104" height="14" rx="7" fill="#A8C2F7"/>
    <rect x="182" y="296" width="90" height="14" rx="7" fill="#A8C2F7"/>
  </g>

  <path d="M252 320C252 309.507 260.507 301 271 301H336V261C336 253.314 342.238 247 349.923 247C353.644 247 357.213 248.494 359.829 251.15L430.906 323.33C436.289 328.795 436.289 337.532 430.906 342.997L359.829 415.177C357.213 417.833 353.644 419.327 349.923 419.327C342.238 419.327 336 413.013 336 405.327V365H271C260.507 365 252 356.493 252 346V320Z" fill="url(#arrowGrad)"/>
  <path d="M259 333H395" stroke="#FFF6E7" stroke-width="12" stroke-linecap="round"/>
</svg>
